<!--?xml version="1.0" encoding="utf-8"?-->
<!-- Generator: Adobe Illustrator 18.1.1, SVG Export Plug-In . SVG Version: 6.00 Build 0)  -->

<svg version="1.1" id="_x32_" xmlns="http://www.w3.org/2000/svg" xmlns:xlink="http://www.w3.org/1999/xlink" x="0px" y="0px" viewBox="0 0 512 512" style="width: 48px; height: 48px; opacity: 1;" xml:space="preserve">
<style type="text/css">
	.st0{fill:#4B4B4B;}
</style>
<g>
	<path class="st0" d="M320.946,138.803c0,0,1.362-2.331,1.362-24.903c0-49.657-43.176-77.613-85.239-77.613
		c-6.855,0-13.145,0.845-18.974,2.248c-4.009,0-66.901,0-107.927,0c-61.222,0-138.245,46.654-99.902,139.775
		c30.126-27.38,59.873-38.523,90.483-38.523c15.348,0,44.85,0,70.511,0c-0.66-16.83,0.624-54.794,23.869-70.884
		c44.554-30.843,88.538,13.981,88.538,32.624c0,18.634,0,46.597,0,83.873s-20.968,60.579-48.927,60.579
		c-20.517,0-43.463-5.096-58.872-17.888c9.94,57.437,35.684,93.055,67.443,114.495c2.613,1.772,5.251,3.216,7.881,4.808
		l5.682,36.242c0.074,5.236,3.04,9.691,7.323,12.03l-0.02,8.394l-19.418,22.023l-19.532-3.184c-3.302-0.534-6.416,1.706-6.95,5.005
		c-0.538,3.306,1.698,6.416,5.005,6.958l1.28,0.205l-20.024,7.992c-3.11,1.239-4.624,4.759-3.38,7.877
		c1.235,3.101,4.759,4.611,7.869,3.373l35.733-14.252l10.408,15.712c1.846,2.79,5.608,3.554,8.394,1.707
		c2.79-1.846,3.558-5.604,1.708-8.394l-10.565-15.959l21.58-24.476l0.024-12.34c5.071-2.158,8.603-7.196,8.526-13.055l0.546-19.528
		c7.532,2.675,14.962,4.776,22.277,6.433l4.714,25.863c1.116,6.121,5.731,10.699,11.409,12.119l0.353,3.265l-11.758,26.888
		l-18.113-0.328c-3.347-0.058-6.104,2.609-6.166,5.949c-0.057,3.356,2.606,6.112,5.95,6.17v-0.008l4.923,0.082l-19.003,14.704
		c-2.647,2.044-3.135,5.85-1.087,8.501c2.042,2.642,5.85,3.134,8.496,1.091v-0.008l28.808-22.278l18.38,15.164
		c2.584,2.133,6.408,1.764,8.537-0.804c2.13-2.584,1.756-6.408-0.816-8.534l-18.597-15.343l12.832-29.342l-0.763-7.106
		c5.108-3.258,8.016-9.378,6.872-15.721l-0.402-15.385c39.557,2.306,68.571-6.548,68.571-6.548l55.918,72.23L512,404.412
		L320.946,138.803z" style="fill: rgb(51, 51, 51);"></path>
	<path class="st0" d="M249.008,101.527c0,7.877-6.388,14.269-14.268,14.269c-7.881,0-14.274-6.392-14.274-14.269
		c0-7.885,6.392-14.278,14.274-14.278C242.62,87.249,249.008,93.642,249.008,101.527z" style="fill: rgb(51, 51, 51);"></path>
</g>
</svg>
